<svg width="93" height="214" viewBox="0 0 93 214" fill="none" xmlns="http://www.w3.org/2000/svg">
<g opacity="0.5">
<rect x="0.314453" y="110.605" width="1.51225" height="1.51474" fill="black"/>
<rect x="10.3955" y="110.605" width="1.51225" height="1.51474" fill="black"/>
<rect x="20.4785" y="110.605" width="1.51225" height="1.51474" fill="black"/>
<rect x="30.5586" y="110.605" width="1.51225" height="1.51474" fill="black"/>
<rect x="40.6406" y="110.605" width="1.51225" height="1.51474" fill="black"/>
<rect x="50.7236" y="110.605" width="1.51225" height="1.51474" fill="black"/>
<rect x="60.8047" y="110.605" width="1.51225" height="1.51474" fill="black"/>
<rect x="70.8877" y="110.605" width="1.51225" height="1.51474" fill="black"/>
<rect x="80.9678" y="110.605" width="1.51225" height="1.51474" fill="black"/>
<rect x="91.0498" y="110.605" width="1.51225" height="1.51474" fill="black"/>
<rect x="0.314453" y="120.701" width="1.51225" height="1.51474" fill="black"/>
<rect x="10.3955" y="120.701" width="1.51225" height="1.51474" fill="black"/>
<rect x="20.4785" y="120.701" width="1.51225" height="1.51474" fill="black"/>
<rect x="30.5586" y="120.701" width="1.51225" height="1.51474" fill="black"/>
<rect x="40.6406" y="120.701" width="1.51225" height="1.51474" fill="black"/>
<rect x="50.7236" y="120.701" width="1.51225" height="1.51474" fill="black"/>
<rect x="60.8047" y="120.701" width="1.51225" height="1.51474" fill="black"/>
<rect x="70.8877" y="120.701" width="1.51225" height="1.51474" fill="black"/>
<rect x="80.9678" y="120.701" width="1.51225" height="1.51474" fill="black"/>
<rect x="91.0498" y="120.701" width="1.51225" height="1.51474" fill="black"/>
<rect x="0.314453" y="130.802" width="1.51225" height="1.51474" fill="black"/>
<rect x="10.3955" y="130.802" width="1.51225" height="1.51474" fill="black"/>
<rect x="20.4785" y="130.802" width="1.51225" height="1.51474" fill="black"/>
<rect x="30.5586" y="130.802" width="1.51225" height="1.51474" fill="black"/>
<rect x="40.6406" y="130.802" width="1.51225" height="1.51474" fill="black"/>
<rect x="50.7236" y="130.802" width="1.51225" height="1.51474" fill="black"/>
<rect x="60.8047" y="130.802" width="1.51225" height="1.51474" fill="black"/>
<rect x="70.8877" y="130.802" width="1.51225" height="1.51474" fill="black"/>
<rect x="80.9678" y="130.802" width="1.51225" height="1.51474" fill="black"/>
<rect x="91.0498" y="130.802" width="1.51225" height="1.51474" fill="black"/>
<rect x="0.314453" y="140.899" width="1.51225" height="1.51474" fill="black"/>
<rect x="10.3955" y="140.899" width="1.51225" height="1.51474" fill="black"/>
<rect x="20.4785" y="140.899" width="1.51225" height="1.51474" fill="black"/>
<rect x="30.5586" y="140.899" width="1.51225" height="1.51474" fill="black"/>
<rect x="40.6406" y="140.899" width="1.51225" height="1.51474" fill="black"/>
<rect x="50.7236" y="140.899" width="1.51225" height="1.51474" fill="black"/>
<rect x="60.8047" y="140.899" width="1.51225" height="1.51474" fill="black"/>
<rect x="70.8877" y="140.899" width="1.51225" height="1.51474" fill="black"/>
<rect x="80.9678" y="140.899" width="1.51225" height="1.51474" fill="black"/>
<rect x="91.0498" y="140.899" width="1.51225" height="1.51474" fill="black"/>
<rect x="0.314453" y="150.996" width="1.51225" height="1.51474" fill="black"/>
<rect x="10.3955" y="150.996" width="1.51225" height="1.51474" fill="black"/>
<rect x="20.4785" y="150.996" width="1.51225" height="1.51474" fill="black"/>
<rect x="30.5586" y="150.996" width="1.51225" height="1.51474" fill="black"/>
<rect x="40.6406" y="150.996" width="1.51225" height="1.51474" fill="black"/>
<rect x="50.7236" y="150.996" width="1.51225" height="1.51474" fill="black"/>
<rect x="60.8047" y="150.996" width="1.51225" height="1.51474" fill="black"/>
<rect x="70.8877" y="150.996" width="1.51225" height="1.51474" fill="black"/>
<rect x="80.9678" y="150.996" width="1.51225" height="1.51474" fill="black"/>
<rect x="91.0498" y="150.996" width="1.51225" height="1.51474" fill="black"/>
<rect x="0.314453" y="161.096" width="1.51225" height="1.51474" fill="black"/>
<rect x="10.3955" y="161.096" width="1.51225" height="1.51474" fill="black"/>
<rect x="20.4785" y="161.096" width="1.51225" height="1.51474" fill="black"/>
<rect x="30.5586" y="161.096" width="1.51225" height="1.51474" fill="black"/>
<rect x="40.6406" y="161.096" width="1.51225" height="1.51474" fill="black"/>
<rect x="50.7236" y="161.096" width="1.51225" height="1.51474" fill="black"/>
<rect x="60.8047" y="161.096" width="1.51225" height="1.51474" fill="black"/>
<rect x="70.8877" y="161.096" width="1.51225" height="1.51474" fill="black"/>
<rect x="80.9678" y="161.096" width="1.51225" height="1.51474" fill="black"/>
<rect x="91.0498" y="161.096" width="1.51225" height="1.51474" fill="black"/>
<rect x="0.314453" y="171.193" width="1.51225" height="1.51474" fill="black"/>
<rect x="10.3955" y="171.193" width="1.51225" height="1.51474" fill="black"/>
<rect x="20.4785" y="171.193" width="1.51225" height="1.51474" fill="black"/>
<rect x="30.5586" y="171.193" width="1.51225" height="1.51474" fill="black"/>
<rect x="40.6406" y="171.193" width="1.51225" height="1.51474" fill="black"/>
<rect x="50.7236" y="171.193" width="1.51225" height="1.51474" fill="black"/>
<rect x="60.8047" y="171.193" width="1.51225" height="1.51474" fill="black"/>
<rect x="70.8877" y="171.193" width="1.51225" height="1.51474" fill="black"/>
<rect x="80.9678" y="171.193" width="1.51225" height="1.51474" fill="black"/>
<rect x="91.0498" y="171.193" width="1.51225" height="1.51474" fill="black"/>
<rect x="0.314453" y="181.292" width="1.51225" height="1.51474" fill="black"/>
<rect x="10.3955" y="181.294" width="1.51225" height="1.51474" fill="black"/>
<rect x="20.4785" y="181.294" width="1.51225" height="1.51474" fill="black"/>
<rect x="30.5586" y="181.294" width="1.51225" height="1.51474" fill="black"/>
<rect x="40.6406" y="181.294" width="1.51225" height="1.51474" fill="black"/>
<rect x="50.7236" y="181.294" width="1.51225" height="1.51474" fill="black"/>
<rect x="60.8047" y="181.294" width="1.51225" height="1.51474" fill="black"/>
<rect x="70.8877" y="181.294" width="1.51225" height="1.51474" fill="black"/>
<rect x="80.9678" y="181.294" width="1.51225" height="1.51474" fill="black"/>
<rect x="91.0498" y="181.294" width="1.51225" height="1.51474" fill="black"/>
<rect x="0.314453" y="191.391" width="1.51225" height="1.51474" fill="black"/>
<rect x="10.3955" y="191.391" width="1.51225" height="1.51474" fill="black"/>
<rect x="20.4785" y="191.391" width="1.51225" height="1.51474" fill="black"/>
<rect x="30.5586" y="191.391" width="1.51225" height="1.51474" fill="black"/>
<rect x="40.6406" y="191.391" width="1.51225" height="1.51474" fill="black"/>
<rect x="50.7236" y="191.391" width="1.51225" height="1.51474" fill="black"/>
<rect x="60.8047" y="191.391" width="1.51225" height="1.51474" fill="black"/>
<rect x="70.8877" y="191.391" width="1.51225" height="1.51474" fill="black"/>
<rect x="80.9678" y="191.391" width="1.51225" height="1.51474" fill="black"/>
<rect x="91.0498" y="191.391" width="1.51225" height="1.51474" fill="black"/>
<rect x="0.314453" y="201.489" width="1.51225" height="1.51474" fill="black"/>
<rect x="10.3955" y="201.489" width="1.51225" height="1.51474" fill="black"/>
<rect x="20.4785" y="201.489" width="1.51225" height="1.51474" fill="black"/>
<rect x="30.5586" y="201.489" width="1.51225" height="1.51474" fill="black"/>
<rect x="40.6406" y="201.489" width="1.51225" height="1.51474" fill="black"/>
<rect x="50.7236" y="201.489" width="1.51225" height="1.51474" fill="black"/>
<rect x="60.8047" y="201.489" width="1.51225" height="1.51474" fill="black"/>
<rect x="70.8877" y="201.489" width="1.51225" height="1.51474" fill="black"/>
<rect x="80.9678" y="201.489" width="1.51225" height="1.51474" fill="black"/>
<rect x="91.0498" y="201.489" width="1.51225" height="1.51474" fill="black"/>
<rect x="0.314453" y="211.588" width="1.51225" height="1.51474" fill="black"/>
<rect x="10.3955" y="211.588" width="1.51225" height="1.51474" fill="black"/>
<rect x="20.4785" y="211.588" width="1.51225" height="1.51474" fill="black"/>
<rect x="30.5586" y="211.588" width="1.51225" height="1.51474" fill="black"/>
<rect x="40.6406" y="211.588" width="1.51225" height="1.51474" fill="black"/>
<rect x="50.7236" y="211.588" width="1.51225" height="1.51474" fill="black"/>
<rect x="60.8047" y="211.588" width="1.51225" height="1.51474" fill="black"/>
<rect x="70.8877" y="211.588" width="1.51225" height="1.51474" fill="black"/>
<rect x="80.9678" y="211.588" width="1.51225" height="1.51474" fill="black"/>
<rect x="91.0498" y="211.588" width="1.51225" height="1.51474" fill="black"/>
</g>
<g opacity="0.5">
<rect width="2" height="2" fill="black"/>
<rect x="10" width="2" height="2" fill="black"/>
<rect x="20" width="2" height="2" fill="black"/>
<rect x="31" width="2" height="2" fill="black"/>
<rect x="41" width="2" height="2" fill="black"/>
<rect x="51" width="2" height="2" fill="black"/>
<rect x="61" width="2" height="2" fill="black"/>
<rect x="71" width="2" height="2" fill="black"/>
<rect x="81" width="2" height="2" fill="black"/>
<rect x="91" width="2" height="2" fill="black"/>
<rect y="10" width="2" height="2" fill="black"/>
<rect x="10" y="10" width="2" height="2" fill="black"/>
<rect x="20" y="10" width="2" height="2" fill="black"/>
<rect x="31" y="10" width="2" height="2" fill="black"/>
<rect x="41" y="10" width="2" height="2" fill="black"/>
<rect x="51" y="10" width="2" height="2" fill="black"/>
<rect x="61" y="10" width="2" height="2" fill="black"/>
<rect x="71" y="10" width="2" height="2" fill="black"/>
<rect x="81" y="10" width="2" height="2" fill="black"/>
<rect x="91" y="10" width="2" height="2" fill="black"/>
<rect y="20" width="2" height="2" fill="black"/>
<rect x="10" y="20" width="2" height="2" fill="black"/>
<rect x="20" y="20" width="2" height="2" fill="black"/>
<rect x="31" y="20" width="2" height="2" fill="black"/>
<rect x="41" y="20" width="2" height="2" fill="black"/>
<rect x="51" y="20" width="2" height="2" fill="black"/>
<rect x="61" y="20" width="2" height="2" fill="black"/>
<rect x="71" y="20" width="2" height="2" fill="black"/>
<rect x="81" y="20" width="2" height="2" fill="black"/>
<rect x="91" y="20" width="2" height="2" fill="black"/>
<rect y="30" width="2" height="2" fill="black"/>
<rect x="10" y="30" width="2" height="2" fill="black"/>
<rect x="20" y="30" width="2" height="2" fill="black"/>
<rect x="31" y="30" width="2" height="2" fill="black"/>
<rect x="41" y="30" width="2" height="2" fill="black"/>
<rect x="51" y="30" width="2" height="2" fill="black"/>
<rect x="61" y="30" width="2" height="2" fill="black"/>
<rect x="71" y="30" width="2" height="2" fill="black"/>
<rect x="81" y="30" width="2" height="2" fill="black"/>
<rect x="91" y="30" width="2" height="2" fill="black"/>
<rect y="40" width="2" height="2" fill="black"/>
<rect x="10" y="40" width="2" height="2" fill="black"/>
<rect x="20" y="40" width="2" height="2" fill="black"/>
<rect x="31" y="40" width="2" height="2" fill="black"/>
<rect x="41" y="40" width="2" height="2" fill="black"/>
<rect x="51" y="40" width="2" height="2" fill="black"/>
<rect x="61" y="40" width="2" height="2" fill="black"/>
<rect x="71" y="40" width="2" height="2" fill="black"/>
<rect x="81" y="40" width="2" height="2" fill="black"/>
<rect x="91" y="40" width="2" height="2" fill="black"/>
<rect y="50" width="2" height="2" fill="black"/>
<rect x="10" y="50" width="2" height="2" fill="black"/>
<rect x="20" y="50" width="2" height="2" fill="black"/>
<rect x="31" y="50" width="2" height="2" fill="black"/>
<rect x="41" y="50" width="2" height="2" fill="black"/>
<rect x="51" y="50" width="2" height="2" fill="black"/>
<rect x="61" y="50" width="2" height="2" fill="black"/>
<rect x="71" y="50" width="2" height="2" fill="black"/>
<rect x="81" y="50" width="2" height="2" fill="black"/>
<rect x="91" y="50" width="2" height="2" fill="black"/>
<rect y="61" width="2" height="2" fill="black"/>
<rect x="10" y="61" width="2" height="2" fill="black"/>
<rect x="20" y="61" width="2" height="2" fill="black"/>
<rect x="31" y="61" width="2" height="2" fill="black"/>
<rect x="41" y="61" width="2" height="2" fill="black"/>
<rect x="51" y="61" width="2" height="2" fill="black"/>
<rect x="61" y="61" width="2" height="2" fill="black"/>
<rect x="71" y="61" width="2" height="2" fill="black"/>
<rect x="81" y="61" width="2" height="2" fill="black"/>
<rect x="91" y="61" width="2" height="2" fill="black"/>
<rect y="71" width="2" height="2" fill="black"/>
<rect x="10" y="71" width="2" height="2" fill="black"/>
<rect x="20" y="71" width="2" height="2" fill="black"/>
<rect x="31" y="71" width="2" height="2" fill="black"/>
<rect x="41" y="71" width="2" height="2" fill="black"/>
<rect x="51" y="71" width="2" height="2" fill="black"/>
<rect x="61" y="71" width="2" height="2" fill="black"/>
<rect x="71" y="71" width="2" height="2" fill="black"/>
<rect x="81" y="71" width="2" height="2" fill="black"/>
<rect x="91" y="71" width="2" height="2" fill="black"/>
<rect y="81" width="2" height="2" fill="black"/>
<rect x="10" y="81" width="2" height="2" fill="black"/>
<rect x="20" y="81" width="2" height="2" fill="black"/>
<rect x="31" y="81" width="2" height="2" fill="black"/>
<rect x="41" y="81" width="2" height="2" fill="black"/>
<rect x="51" y="81" width="2" height="2" fill="black"/>
<rect x="61" y="81" width="2" height="2" fill="black"/>
<rect x="71" y="81" width="2" height="2" fill="black"/>
<rect x="81" y="81" width="2" height="2" fill="black"/>
<rect x="91" y="81" width="2" height="2" fill="black"/>
<rect y="91" width="2" height="2" fill="black"/>
<rect x="10" y="91" width="2" height="2" fill="black"/>
<rect x="20" y="91" width="2" height="2" fill="black"/>
<rect x="31" y="91" width="2" height="2" fill="black"/>
<rect x="41" y="91" width="2" height="2" fill="black"/>
<rect x="51" y="91" width="2" height="2" fill="black"/>
<rect x="61" y="91" width="2" height="2" fill="black"/>
<rect x="71" y="91" width="2" height="2" fill="black"/>
<rect x="81" y="91" width="2" height="2" fill="black"/>
<rect x="91" y="91" width="2" height="2" fill="black"/>
<rect y="101" width="2" height="2" fill="black"/>
<rect x="10" y="101" width="2" height="2" fill="black"/>
<rect x="20" y="101" width="2" height="2" fill="black"/>
<rect x="31" y="101" width="2" height="2" fill="black"/>
<rect x="41" y="101" width="2" height="2" fill="black"/>
<rect x="51" y="101" width="2" height="2" fill="black"/>
<rect x="61" y="101" width="2" height="2" fill="black"/>
<rect x="71" y="101" width="2" height="2" fill="black"/>
<rect x="81" y="101" width="2" height="2" fill="black"/>
<rect x="91" y="101" width="2" height="2" fill="black"/>
</g>
</svg>
